HIERARCHY
ROOT Hips
{
	OFFSET 0.000000 0.000000 0.000000
	CHANNELS 6 Xposition Yposition Zposition Zrotation Yrotation Xrotation 
	JOINT LHipJoint
	{
		OFFSET 0.000000 0.000000 0.000000
		CHANNELS 3 Zrotation Yrotation Xrotation
		JOINT LeftUpLeg
		{
			OFFSET 1.363060 -1.794630 0.839290
			CHANNELS 3 Zrotation Yrotation Xrotation
			JOINT LeftLeg
			{
				OFFSET 2.448110 -6.726130 0.000000
				CHANNELS 3 Zrotation Yrotation Xrotation
				JOINT LeftFoot
				{
					OFFSET 2.562200 -7.039590 0.000000
					CHANNELS 3 Zrotation Yrotation Xrotation
					JOINT LeftToeBase
					{
						OFFSET 0.157640 -0.433110 2.322550
						CHANNELS 3 Zrotation Yrotation Xrotation
						End Site
						{
							OFFSET 0.000000 0.000000 0.000000
						}
					}
				}
			}
		}
	}
	JOINT RHipJoint
	{
		OFFSET 0.000000 0.000000 0.000000
		CHANNELS 3 Zrotation Yrotation Xrotation
		JOINT RightUpLeg
		{
			OFFSET -1.305520 -1.794630 0.839290
			CHANNELS 3 Zrotation Yrotation Xrotation
			JOINT RightLeg
			{
				OFFSET -2.542530 -6.985550 0.000000
				CHANNELS 3 Zrotation Yrotation Xrotation
				JOINT RightFoot
				{
					OFFSET -2.568260 -7.056230 0.000000
					CHANNELS 3 Zrotation Yrotation Xrotation
					JOINT RightToeBase
					{
						OFFSET -0.164730 -0.452590 2.363150
						CHANNELS 3 Zrotation Yrotation Xrotation
						End Site
						{
							OFFSET 0.000000 0.000000 0.000000
						}
					}
				}
			}
		}
	}
	JOINT LowerBack
	{
		OFFSET 0.000000 0.000000 0.000000
		CHANNELS 3 Zrotation Yrotation Xrotation
		JOINT Spine
		{
			OFFSET 0.028270 2.035590 -0.193380
			CHANNELS 3 Zrotation Yrotation Xrotation
			JOINT Spine1
			{
				OFFSET 0.056720 2.048850 -0.042750
				CHANNELS 3 Zrotation Yrotation Xrotation
				JOINT Neck
				{
					OFFSET 0.000000 0.000000 0.000000
					CHANNELS 3 Zrotation Yrotation Xrotation
					JOINT Neck1
					{
						OFFSET -0.054170 1.746240 0.172020
						CHANNELS 3 Zrotation Yrotation Xrotation
						JOINT Head
						{
							OFFSET 0.104070 1.761360 -0.123970
							CHANNELS 3 Zrotation Yrotation Xrotation
							End Site
							{
								OFFSET 0.000000 0.000000 0.000000
							}
						}
					}
				}
				JOINT LeftShoulder
				{
					OFFSET 0.000000 0.000000 0.000000
					CHANNELS 3 Zrotation Yrotation Xrotation
					JOINT LeftArm
					{
						OFFSET 3.362410 1.200890 -0.311210
						CHANNELS 3 Zrotation Yrotation Xrotation
						JOINT LeftForeArm
						{
							OFFSET 4.983000 -0.000000 -0.000000
							CHANNELS 3 Zrotation Yrotation Xrotation
							JOINT LeftHand
							{
								OFFSET 3.483560 -0.000000 -0.000000
								CHANNELS 3 Zrotation Yrotation Xrotation
								JOINT LeftFingerBase
								{
									OFFSET 0.000000 0.000000 0.000000
									CHANNELS 3 Zrotation Yrotation Xrotation
									JOINT LeftHandIndex1
									{
										OFFSET 0.715260 -0.000000 -0.000000
										CHANNELS 3 Zrotation Yrotation Xrotation
										End Site
										{
											OFFSET 0.000000 0.000000 0.000000
										}
									}
								}
								JOINT LThumb
								{
									OFFSET 0.000000 0.000000 0.000000
									CHANNELS 3 Zrotation Yrotation Xrotation
									End Site
									{
										OFFSET 0.000000 0.000000 0.000000
									}
								}
							}
						}
					}
				}
				JOINT RightShoulder
				{
					OFFSET 0.000000 0.000000 0.000000
					CHANNELS 3 Zrotation Yrotation Xrotation
					JOINT RightArm
					{
						OFFSET -3.136600 1.374050 -0.404650
						CHANNELS 3 Zrotation Yrotation Xrotation
						JOINT RightForeArm
						{
							OFFSET -5.241900 -0.000000 -0.000000
							CHANNELS 3 Zrotation Yrotation Xrotation
							JOINT RightHand
							{
								OFFSET -3.444170 -0.000000 -0.000000
								CHANNELS 3 Zrotation Yrotation Xrotation
								JOINT RightFingerBase
								{
									OFFSET 0.000000 0.000000 0.000000
									CHANNELS 3 Zrotation Yrotation Xrotation
									JOINT RightHandIndex1
									{
										OFFSET -0.622530 -0.000000 -0.000000
										CHANNELS 3 Zrotation Yrotation Xrotation
										End Site
										{
											OFFSET 0.000000 0.000000 0.000000
										}
									}
								}
								JOINT RThumb
								{
									OFFSET 0.000000 0.000000 0.000000
									CHANNELS 3 Zrotation Yrotation Xrotation
									End Site
									{
										OFFSET 0.000000 0.000000 0.000000
									}
								}
							}
						}
					}
				}
			}
		}
	}
}
MOTION
Frames: 8
Frame Time: 0.008333
1.441656 17.834926 1.851534 17.698892 -75.439401 -10.628193 -3.915310 0.961842 1.613656 -21.843764 -2.464990 -18.721640 0.561314 8.839566 27.654853 1.333596 -3.498902 -0.429278 0.000200 -0.096100 -0.264000 1.556431 -1.564148 1.101638 6.386240 6.562623 -21.277897 -3.124056 -12.080642 36.496094 -2.538988 7.093267 -6.281748 -0.001700 -0.262700 0.721800 -4.803635 2.154368 -0.230893 0.377360 2.302871 -1.316645 3.798214 1.614051 1.397444 -9.313606 3.771205 -21.190192 -4.026083 7.672802 9.811188 1.400000 2.001900 9.896900 -10.659598 -1.392905 -1.857472 -74.688354 -0.194580 22.354405 12.504405 -24.388289 -3.499822 -0.262932 -2.076200 8.440924 11.117649 22.955596 4.751800 -7.125000 0.000000 0.000000 -19.504300 54.407100 -4.642000 10.159866 1.461566 -1.998554 73.317844 -2.335979 16.235160 -15.481874 22.821227 -4.138385 0.655413 -0.605029 15.205178 -17.939980 5.124854 -1.872900 7.125000 0.000000 0.000000 5.922000 -24.142100 2.997300 
1.430953 17.837984 1.862033 17.363884 -75.541771 -10.388739 -3.921907 0.976451 1.623826 -21.772116 -2.498586 -18.546113 0.556114 8.824617 27.613766 1.281492 -3.265159 -0.546839 0.001200 -0.225300 -0.618900 1.614832 -1.579876 1.112421 6.493019 7.174017 -20.897864 -3.040065 -11.993779 36.266581 -2.228227 6.013395 -5.585216 -0.104600 -2.085900 5.743100 -4.701757 2.183898 -0.291509 0.343041 2.349600 -1.291985 3.683621 1.633378 1.466582 -9.303107 3.682114 -21.096243 -3.940539 7.532291 9.737857 1.414300 1.958900 9.851500 -10.674601 -1.391248 -1.852780 -74.586473 -0.322024 22.288621 12.505146 -24.384016 -3.498991 -0.259063 -2.084904 8.327556 11.078185 23.108213 4.762400 -7.125000 0.000000 0.000000 -19.635300 54.551100 -4.745100 10.165894 1.470081 -1.984090 73.328033 -2.233529 15.702263 -15.250635 22.572093 -4.059811 0.550131 -0.723561 16.367775 -17.789738 6.693079 -2.414400 7.125000 0.000000 0.000000 6.043100 -22.372900 3.305900 
1.427181 17.836761 1.870392 17.913067 -75.542262 -10.961205 -3.927238 0.989798 1.635014 -21.972415 -2.379691 -18.504911 0.554238 8.816186 27.594018 1.268644 -3.222455 -0.584838 0.007500 -0.558100 -1.533600 1.635210 -1.592649 1.112799 6.329532 7.767018 -20.567627 -3.017798 -11.966002 36.201794 -1.916048 4.683472 -5.788160 -0.174900 -2.694000 7.427900 -4.863897 2.197292 -0.310765 0.311191 2.368559 -1.292768 3.706455 1.641590 1.464740 -9.377823 3.598392 -20.999649 -3.917469 7.430590 9.664576 1.421100 1.918100 9.806700 -10.681532 -1.388134 -1.848727 -74.693448 -0.440953 21.890783 12.499054 -24.359422 -3.494140 -0.263816 -2.082487 8.498301 11.074103 23.134775 4.764400 -7.125000 0.000000 0.000000 -19.654700 54.573400 -4.761000 10.157270 1.481194 -1.981394 73.276762 -2.212458 15.921964 -15.300260 22.619690 -4.069255 0.575845 -0.661215 16.526276 -17.604687 5.825521 -2.081700 7.125000 0.000000 0.000000 6.190200 -23.360700 3.246500 
1.426978 17.834518 1.877833 18.321473 -75.485285 -11.332479 -3.930440 0.997365 1.632563 -22.128130 -2.450080 -18.484114 0.555444 8.817575 27.597077 1.237912 -3.103236 -0.665827 0.014100 -0.765600 -2.104000 1.658593 -1.606251 1.117301 6.164666 8.258443 -20.293165 -2.990283 -11.932352 36.084555 -1.600676 3.154753 -6.929628 -0.062900 -1.618800 4.453300 -4.972802 2.180803 -0.354906 0.256016 2.349844 -1.299028 3.656136 1.631911 1.482435 -9.421448 3.509775 -21.061328 -3.804481 7.333560 9.693257 1.458100 1.881700 9.830300 -10.688829 -1.385238 -1.849191 -74.667368 -0.552309 21.678698 12.531385 -24.396004 -3.508428 -0.269626 -2.082427 8.582620 11.133581 23.176816 4.799400 -7.125000 0.000000 0.000000 -19.618000 54.625700 -4.777000 10.153673 1.496914 -1.974424 73.279804 -2.112236 15.833441 -15.247593 22.551877 -4.044560 0.561814 -0.657870 16.843950 -17.441196 5.773414 -2.042500 7.125000 0.000000 0.000000 6.320600 -23.425300 3.306300 
1.423002 17.837372 1.883847 17.374091 -75.465573 -10.450699 -3.931754 1.004529 1.630983 -21.879506 -2.694537 -18.337935 0.554052 8.816248 27.591311 1.193460 -2.905509 -0.713285 0.011900 -0.704300 -1.935500 1.727696 -1.636215 1.131576 6.336571 8.903919 -19.917661 -2.959720 -11.899895 36.001780 -1.333588 1.878913 -8.159774 -0.007800 -0.571300 1.569900 -4.740484 2.166403 -0.341037 0.239734 2.331702 -1.313768 3.499036 1.626665 1.451194 -9.350954 3.441644 -21.036532 -3.721611 7.213406 9.706424 1.464000 1.842600 9.836100 -10.696330 -1.388572 -1.849975 -74.508969 -0.585749 21.746790 12.568710 -24.449798 -3.524898 -0.275793 -2.089477 8.295156 11.349368 23.261182 4.918300 -7.125000 0.000000 0.000000 -19.442500 54.756900 -4.794900 10.153495 1.504809 -1.967709 73.331449 -2.050029 15.711286 -15.137288 22.416252 -3.996286 0.549441 -0.672097 17.085350 -17.392127 5.894310 -2.079900 7.125000 0.000000 0.000000 6.357800 -23.286100 3.346400 
1.416682 17.843284 1.888434 16.106505 -75.453058 -9.228688 -3.925308 1.002831 1.629780 -21.546080 -2.796137 -18.285159 0.557317 8.824807 27.610844 1.188086 -2.856076 -0.724323 0.012300 -0.716900 -1.970100 1.804022 -1.663467 1.142820 6.582706 9.603200 -19.562415 -2.920287 -11.849540 35.884225 -1.245670 1.543161 -8.355998 -0.028500 -1.089000 2.993900 -4.477879 2.115795 -0.349823 0.282102 2.264673 -1.351068 3.438912 1.596359 1.392644 -9.425068 3.402825 -20.899805 -3.621867 7.162584 9.605004 1.508500 1.837100 9.769800 -10.702940 -1.380588 -1.853579 -74.566909 -0.592054 21.416650 12.580669 -24.459122 -3.528144 -0.291535 -2.087493 8.196518 11.652865 23.238347 5.057500 -7.125000 0.000000 0.000000 -19.110100 54.797600 -4.727600 10.155207 1.514428 -1.960640 73.209685 -2.051335 15.829734 -15.038556 22.307369 -3.956844 0.545256 -0.695019 17.052102 -17.475698 6.147731 -2.180800 7.125000 0.000000 0.000000 6.288400 -22.993300 3.352000 
1.409955 17.846138 1.892613 15.395806 -75.478347 -8.570312 -3.918080 1.004580 1.631865 -21.376023 -2.760438 -18.267905 0.564797 8.837755 27.645254 1.180618 -2.809501 -0.728979 0.016500 -0.829300 -2.279200 1.851986 -1.682609 1.152520 6.709777 10.087910 -19.279870 -2.884785 -11.795696 35.752511 -1.319054 1.990107 -7.731165 -0.141600 -2.424800 6.681100 -4.356832 2.059170 -0.364900 0.311265 2.190267 -1.372046 3.428049 1.558427 1.370269 -9.577415 3.391349 -20.894963 -3.406554 7.194032 9.602884 1.617900 1.867100 9.758600 -10.707418 -1.363404 -1.860276 -74.704045 -0.576925 20.884639 12.600248 -24.477279 -3.535997 -0.309162 -2.081584 8.124382 11.991451 23.151267 5.200000 -7.125000 0.000000 0.000000 -18.702300 54.780700 -4.613400 10.159397 1.529333 -1.951235 73.073130 -2.012756 15.945323 -14.924919 22.181406 -3.914221 0.538234 -0.736891 17.055468 -17.674828 6.599016 -2.369800 7.125000 0.000000 0.000000 6.129200 -22.468500 3.340100 
1.402411 17.848891 1.898322 14.847392 -75.491318 -8.101668 -3.918657 1.013873 1.633698 -21.234571 -2.888364 -18.134223 0.566585 8.838252 27.649981 1.165002 -2.733759 -0.783949 0.011600 -0.694300 -1.908000 1.881309 -1.702012 1.167483 6.819633 10.291093 -19.069621 -2.856510 -11.756703 35.648290 -1.368136 2.272845 -7.375774 -0.224100 -3.047200 8.410300 -4.311155 2.030288 -0.357846 0.329680 2.150856 -1.379781 3.430835 1.538988 1.349224 -9.515679 3.396269 -20.924363 -3.387799 7.181064 9.579328 1.610000 1.870100 9.757700 -10.702676 -1.364561 -1.858228 -74.868300 -0.578398 20.367114 12.622975 -24.496380 -3.541565 -0.329643 -2.082810 8.042026 12.383668 23.222795 5.399400 -7.125000 0.000000 0.000000 -18.332100 54.932600 -4.586100 10.167641 1.529374 -1.948062 73.041567 -1.959698 15.843147 -14.843564 22.076841 -3.877441 0.538350 -0.740553 17.271533 -17.680563 6.542575 -2.352700 7.125000 0.000000 0.000000 6.123400 -22.526200 3.328800 
